<svg width="1100" height="850" viewBox="0 0 1100 850" fill="none" xmlns="http://www.w3.org/2000/svg">
<g clip-path="url(#clip0_1586_9)">
<path d="M150 161.5C150 161.5 316 51 550 51C784 51 950 161.5 950 161.5L752.667 491.606L550 817.5L347.333 491.606L150 161.5Z" fill="#8EB5DC"/>
<g opacity="0.85">
<path d="M550 305.5C645.277 305.5 726.715 327.935 784.335 350.372C813.144 361.59 835.997 372.808 851.645 381.22C859.468 385.425 865.49 388.93 869.556 391.382C871.588 392.608 873.132 393.571 874.166 394.227C874.676 394.55 875.063 394.799 875.323 394.968L714.749 662.854L550 927.056L385.251 662.854L224.676 394.968C224.936 394.799 225.323 394.55 225.834 394.227C226.868 393.571 228.412 392.608 230.444 391.382C234.51 388.93 240.532 385.425 248.355 381.22C264.003 372.808 286.856 361.59 315.665 350.372C373.285 327.935 454.723 305.5 550 305.5Z" fill="#FFB71C" stroke="white"/>
</g>
<path opacity="0.9" d="M301 605.053C301 605.053 404.335 536 550 536C695.665 536 799 605.053 799 605.053L676.16 811.343L550 1015L423.84 811.343L301 605.053Z" fill="#CE572B"/>
</g>
<defs>
<clipPath id="clip0_1586_9">
<rect width="1100" height="850" fill="white"/>
</clipPath>
</defs>
</svg>
